name rise30.6535peak61.5555fall82.9339.mot
datacolumns 19
datarows 30
range 18.35492800000000 18.40325800000000
endheader
time	ground_force1_vx	ground_force1_vy	ground_force1_vz	ground_force1_px	ground_force1_py	ground_force1_pz	ground_force2_vx	ground_force2_vy	ground_force2_vz	ground_force2_px	ground_force2_py	ground_force2_pz	ground_torque1_x	ground_torque1_y	ground_torque1_z	ground_torque2_x	ground_torque2_y	ground_torque2_z	
18.35492800000000	69.67250500000000	776.73824700000000	55.85444400000000	0.36746500000000	0.00000000000000	0.12655400000000	0.00000000000000	0.00000000000000	0.00000000000000	0.00000000000000	0.00000000000000	0.00000000000000	0.00000000000000	23.73516900000000	0.00000000000000	0.00000000000000	0.00000000000000	0.00000000000000	
18.35659300000000	68.96575600000000	778.59080400000005	55.91817600000000	0.36654300000000	0.00000000000000	0.12655600000000	0.00000000000000	0.00000000000000	0.00000000000000	0.00000000000000	0.00000000000000	0.00000000000000	0.00000000000000	23.84453400000000	0.00000000000000	0.00000000000000	0.00000000000000	0.00000000000000	
18.35825600000000	68.26320200000001	780.31402600000001	55.98073200000000	0.36564200000000	0.00000000000000	0.12655800000000	0.00000000000000	0.00000000000000	0.00000000000000	0.00000000000000	0.00000000000000	0.00000000000000	0.00000000000000	23.95366900000000	0.00000000000000	0.00000000000000	0.00000000000000	0.00000000000000	
18.35993000000000	67.56502900000000	781.90757499999995	56.04181000000000	0.36475900000000	0.00000000000000	0.12656200000000	0.00000000000000	0.00000000000000	0.00000000000000	0.00000000000000	0.00000000000000	0.00000000000000	0.00000000000000	24.06226100000000	0.00000000000000	0.00000000000000	0.00000000000000	0.00000000000000	
18.36160600000000	66.87135300000000	783.37129500000003	56.10106400000000	0.36389400000000	0.00000000000000	0.12656600000000	0.00000000000000	0.00000000000000	0.00000000000000	0.00000000000000	0.00000000000000	0.00000000000000	0.00000000000000	24.16996900000000	0.00000000000000	0.00000000000000	0.00000000000000	0.00000000000000	
18.36325800000000	66.18222900000001	784.70522600000004	56.15810300000000	0.36304400000000	0.00000000000000	0.12657100000000	0.00000000000000	0.00000000000000	0.00000000000000	0.00000000000000	0.00000000000000	0.00000000000000	0.00000000000000	24.27643300000000	0.00000000000000	0.00000000000000	0.00000000000000	0.00000000000000	
18.36492900000000	65.49765400000000	785.90961000000004	56.21250200000000	0.36220800000000	0.00000000000000	0.12657700000000	0.00000000000000	0.00000000000000	0.00000000000000	0.00000000000000	0.00000000000000	0.00000000000000	0.00000000000000	24.38126900000000	0.00000000000000	0.00000000000000	0.00000000000000	0.00000000000000	
18.36659300000000	64.81757000000000	786.98488999999995	56.26380000000000	0.36138500000000	0.00000000000000	0.12658400000000	0.00000000000000	0.00000000000000	0.00000000000000	0.00000000000000	0.00000000000000	0.00000000000000	0.00000000000000	24.48408200000000	0.00000000000000	0.00000000000000	0.00000000000000	0.00000000000000	
18.36826100000000	64.14186900000000	787.93172200000004	56.31151200000000	0.36057200000000	0.00000000000000	0.12659200000000	0.00000000000000	0.00000000000000	0.00000000000000	0.00000000000000	0.00000000000000	0.00000000000000	0.00000000000000	24.58446000000000	0.00000000000000	0.00000000000000	0.00000000000000	0.00000000000000	
18.36992600000000	63.47039900000000	788.75097400000004	56.35513000000000	0.35976800000000	0.00000000000000	0.12660000000000	0.00000000000000	0.00000000000000	0.00000000000000	0.00000000000000	0.00000000000000	0.00000000000000	0.00000000000000	24.68198400000000	0.00000000000000	0.00000000000000	0.00000000000000	0.00000000000000	
18.37159600000000	62.80296800000000	789.44372699999997	56.39413000000000	0.35897000000000	0.00000000000000	0.12660900000000	0.00000000000000	0.00000000000000	0.00000000000000	0.00000000000000	0.00000000000000	0.00000000000000	0.00000000000000	24.77622800000000	0.00000000000000	0.00000000000000	0.00000000000000	0.00000000000000	
18.37326400000000	62.13935000000000	790.01128000000006	56.42797900000000	0.35817800000000	0.00000000000000	0.12661900000000	0.00000000000000	0.00000000000000	0.00000000000000	0.00000000000000	0.00000000000000	0.00000000000000	0.00000000000000	24.86676400000000	0.00000000000000	0.00000000000000	0.00000000000000	0.00000000000000	
18.37492800000000	61.47928800000000	790.45514700000001	56.45613600000000	0.35738800000000	0.00000000000000	0.12663000000000	0.00000000000000	0.00000000000000	0.00000000000000	0.00000000000000	0.00000000000000	0.00000000000000	0.00000000000000	24.95316300000000	0.00000000000000	0.00000000000000	0.00000000000000	0.00000000000000	
18.37658900000000	60.82250200000000	790.77705600000002	56.47806200000000	0.35660000000000	0.00000000000000	0.12664200000000	0.00000000000000	0.00000000000000	0.00000000000000	0.00000000000000	0.00000000000000	0.00000000000000	0.00000000000000	25.03500100000000	0.00000000000000	0.00000000000000	0.00000000000000	0.00000000000000	
18.37826200000000	60.16868900000000	790.97894699999995	56.49322100000000	0.35581000000000	0.00000000000000	0.12665400000000	0.00000000000000	0.00000000000000	0.00000000000000	0.00000000000000	0.00000000000000	0.00000000000000	0.00000000000000	25.11186000000000	0.00000000000000	0.00000000000000	0.00000000000000	0.00000000000000	
18.37993000000000	59.51753200000000	791.06297300000006	56.50109000000000	0.35501800000000	0.00000000000000	0.12666800000000	0.00000000000000	0.00000000000000	0.00000000000000	0.00000000000000	0.00000000000000	0.00000000000000	0.00000000000000	25.18333300000000	0.00000000000000	0.00000000000000	0.00000000000000	0.00000000000000	
18.38159100000000	58.86870300000000	791.03148699999997	56.50115800000000	0.35422100000000	0.00000000000000	0.12668200000000	0.00000000000000	0.00000000000000	0.00000000000000	0.00000000000000	0.00000000000000	0.00000000000000	0.00000000000000	25.24902500000000	0.00000000000000	0.00000000000000	0.00000000000000	0.00000000000000	
18.38325800000000	58.22186700000000	790.88704600000005	56.49293400000000	0.35341700000000	0.00000000000000	0.12669700000000	0.00000000000000	0.00000000000000	0.00000000000000	0.00000000000000	0.00000000000000	0.00000000000000	0.00000000000000	25.30855800000000	0.00000000000000	0.00000000000000	0.00000000000000	0.00000000000000	
18.38492700000000	57.57668800000000	790.63239799999997	56.47595200000000	0.35260500000000	0.00000000000000	0.12671200000000	0.00000000000000	0.00000000000000	0.00000000000000	0.00000000000000	0.00000000000000	0.00000000000000	0.00000000000000	25.36157100000000	0.00000000000000	0.00000000000000	0.00000000000000	0.00000000000000	
18.38659500000000	56.93283100000000	790.27047800000003	56.44977300000000	0.35178200000000	0.00000000000000	0.12672900000000	0.00000000000000	0.00000000000000	0.00000000000000	0.00000000000000	0.00000000000000	0.00000000000000	0.00000000000000	25.40772800000000	0.00000000000000	0.00000000000000	0.00000000000000	0.00000000000000	
18.38825800000000	56.28996700000000	789.80440099999998	56.41398900000000	0.35094600000000	0.00000000000000	0.12674600000000	0.00000000000000	0.00000000000000	0.00000000000000	0.00000000000000	0.00000000000000	0.00000000000000	0.00000000000000	25.44671200000000	0.00000000000000	0.00000000000000	0.00000000000000	0.00000000000000	
18.38992500000000	55.64777700000000	789.23745199999996	56.36822800000000	0.35009700000000	0.00000000000000	0.12676300000000	0.00000000000000	0.00000000000000	0.00000000000000	0.00000000000000	0.00000000000000	0.00000000000000	0.00000000000000	25.47823700000000	0.00000000000000	0.00000000000000	0.00000000000000	0.00000000000000	
18.39159100000000	55.00595300000000	788.57307400000002	56.31215800000000	0.34923100000000	0.00000000000000	0.12678200000000	0.00000000000000	0.00000000000000	0.00000000000000	0.00000000000000	0.00000000000000	0.00000000000000	0.00000000000000	25.50204100000000	0.00000000000000	0.00000000000000	0.00000000000000	0.00000000000000	
18.39325800000000	54.36420700000000	787.81486199999995	56.24548500000000	0.34834900000000	0.00000000000000	0.12680100000000	0.00000000000000	0.00000000000000	0.00000000000000	0.00000000000000	0.00000000000000	0.00000000000000	0.00000000000000	25.51789600000000	0.00000000000000	0.00000000000000	0.00000000000000	0.00000000000000	
18.39492200000000	53.72226600000000	786.96654899999999	56.16796200000000	0.34744700000000	0.00000000000000	0.12682100000000	0.00000000000000	0.00000000000000	0.00000000000000	0.00000000000000	0.00000000000000	0.00000000000000	0.00000000000000	25.52560300000000	0.00000000000000	0.00000000000000	0.00000000000000	0.00000000000000	
18.39660700000000	53.07988100000000	786.03199700000005	56.07938500000000	0.34652400000000	0.00000000000000	0.12684200000000	0.00000000000000	0.00000000000000	0.00000000000000	0.00000000000000	0.00000000000000	0.00000000000000	0.00000000000000	25.52499800000000	0.00000000000000	0.00000000000000	0.00000000000000	0.00000000000000	
18.39826000000000	52.43682600000000	785.01518199999998	55.97960000000000	0.34557900000000	0.00000000000000	0.12686300000000	0.00000000000000	0.00000000000000	0.00000000000000	0.00000000000000	0.00000000000000	0.00000000000000	0.00000000000000	25.51595000000000	0.00000000000000	0.00000000000000	0.00000000000000	0.00000000000000	
18.39992400000000	51.79290400000000	783.92018499999995	55.86850000000000	0.34461100000000	0.00000000000000	0.12688500000000	0.00000000000000	0.00000000000000	0.00000000000000	0.00000000000000	0.00000000000000	0.00000000000000	0.00000000000000	25.49836600000000	0.00000000000000	0.00000000000000	0.00000000000000	0.00000000000000	
18.40160400000000	51.14794200000000	782.75117699999998	55.74602900000000	0.34361900000000	0.00000000000000	0.12690800000000	0.00000000000000	0.00000000000000	0.00000000000000	0.00000000000000	0.00000000000000	0.00000000000000	0.00000000000000	25.47218700000000	0.00000000000000	0.00000000000000	0.00000000000000	0.00000000000000	
18.40325800000000	50.50180100000000	781.51240499999994	55.61218100000000	0.34260100000000	0.00000000000000	0.12693100000000	0.00000000000000	0.00000000000000	0.00000000000000	0.00000000000000	0.00000000000000	0.00000000000000	0.00000000000000	25.43739200000000	0.00000000000000	0.00000000000000	0.00000000000000	0.00000000000000	
